<svg width="40" height="40" viewBox="0 0 40 40" fill="none" xmlns="http://www.w3.org/2000/svg">
<path d="M28.3334 21.8837V28.0453H24.7617V22.2953C24.7617 20.852 24.2451 19.867 22.9517 19.867C21.9651 19.867 21.3767 20.5303 21.1184 21.1737C21.0251 21.4037 21.0001 21.7237 21.0001 22.0437V28.0453H17.4267C17.4267 28.0453 17.4751 18.3087 17.4267 17.3003H21.0001V18.822L20.9767 18.857H21.0001V18.8237C21.4751 18.0903 22.3217 17.047 24.2201 17.047C26.5701 17.047 28.3334 18.5837 28.3334 21.8837ZM13.6884 12.1187C12.4667 12.1187 11.6667 12.922 11.6667 13.9753C11.6667 15.0087 12.4434 15.8337 13.6417 15.8337H13.6651C14.9117 15.8337 15.6867 15.007 15.6867 13.9753C15.6634 12.922 14.9117 12.1187 13.6884 12.1187ZM11.8784 28.0453H15.4517V17.3003H11.8784V28.0453Z" fill="white"/>
<path d="M10 6.66683C9.11599 6.66683 8.26814 7.01802 7.64302 7.64314C7.0179 8.26826 6.66671 9.11611 6.66671 10.0002V30.0002C6.66671 30.8842 7.0179 31.7321 7.64302 32.3572C8.26814 32.9823 9.11599 33.3335 10 33.3335H30C30.8841 33.3335 31.7319 32.9823 32.3571 32.3572C32.9822 31.7321 33.3334 30.8842 33.3334 30.0002V10.0002C33.3334 9.11611 32.9822 8.26826 32.3571 7.64314C31.7319 7.01802 30.8841 6.66683 30 6.66683H10ZM10 3.3335H30C31.7682 3.3335 33.4638 4.03588 34.7141 5.28612C35.9643 6.53636 36.6667 8.23205 36.6667 10.0002V30.0002C36.6667 31.7683 35.9643 33.464 34.7141 34.7142C33.4638 35.9644 31.7682 36.6668 30 36.6668H10C8.23193 36.6668 6.53624 35.9644 5.286 34.7142C4.03575 33.464 3.33337 31.7683 3.33337 30.0002V10.0002C3.33337 8.23205 4.03575 6.53636 5.286 5.28612C6.53624 4.03588 8.23193 3.3335 10 3.3335V3.3335Z" fill="white"/>
</svg>
