<svg width="40" height="40" viewBox="0 0 40 40" fill="none" xmlns="http://www.w3.org/2000/svg">
<path d="M20 3.3335C10.8 3.3335 3.33331 10.8002 3.33331 20.0002C3.33331 29.2002 10.8 36.6668 20 36.6668C29.1833 36.6668 36.6666 29.2002 36.6666 20.0002C36.6666 10.8002 29.1833 3.3335 20 3.3335ZM31.0083 11.0168C33.0595 13.5157 34.1945 16.6408 34.225 19.8735C33.7566 19.7835 29.0566 18.8252 24.32 19.4218C24.2116 19.1868 24.12 18.9335 24.0133 18.6802C23.7184 17.9852 23.4049 17.2983 23.0733 16.6202C28.315 14.4868 30.7016 11.4135 31.0083 11.0168V11.0168ZM20 5.79183C23.6166 5.79183 26.9233 7.1485 29.4366 9.37183C29.1833 9.73183 27.0316 12.6068 21.97 14.5052C19.6383 10.2218 17.0533 6.7135 16.655 6.17183C17.7514 5.91551 18.874 5.78798 20 5.79183V5.79183ZM13.945 7.13016C15.8524 9.77403 17.6144 12.5198 19.2233 15.3552C12.57 17.1268 6.69498 17.0885 6.06331 17.0885C6.52136 14.9337 7.47099 12.9139 8.83815 11.1865C10.2053 9.45911 11.953 8.07091 13.945 7.13016V7.13016ZM5.75498 20.0168V19.5835C6.37165 19.6002 13.275 19.6918 20.38 17.5585C20.7966 18.3535 21.175 19.1668 21.5366 19.9802C21.355 20.0352 21.1566 20.0885 20.9766 20.1435C13.6366 22.5102 9.73165 28.9818 9.40665 29.5252C7.05638 26.9159 5.75604 23.5285 5.75665 20.0168H5.75498ZM20 34.2452C16.8357 34.2506 13.7611 33.1942 11.2683 31.2452C11.5216 30.7202 14.415 25.1518 22.44 22.3502C22.4766 22.3335 22.495 22.3335 22.53 22.3135C23.8839 25.8058 24.9013 29.4194 25.5683 33.1052C23.8097 33.8619 21.9145 34.2499 20 34.2452V34.2452ZM27.935 31.8035C27.7916 30.9368 27.0316 26.7785 25.1683 21.6635C29.635 20.9585 33.54 22.1152 34.0266 22.2785C33.7227 24.2003 33.0246 26.0385 31.9763 27.6777C30.928 29.3168 29.5521 30.7215 27.935 31.8035Z" fill="white"/>
</svg>
